<svg id="visual" viewBox="0 0 1600 200" width="1600" height="200" xmlns="http://www.w3.org/2000/svg" xmlns:xlink="http://www.w3.org/1999/xlink" version="1.1"><rect x="0" y="0" width="1600" height="200" fill="#334155"></rect><path d="M0 148L14 150.8C28 153.7 56 159.3 84 155.7C112 152 140 139 168.2 138.7C196.3 138.3 224.7 150.7 252.8 157.5C281 164.3 309 165.7 337 163.5C365 161.3 393 155.7 421 151.5C449 147.3 477 144.7 505 144.3C533 144 561 146 589.2 149.2C617.3 152.3 645.7 156.7 673.8 153.8C702 151 730 141 758 137C786 133 814 135 842 138C870 141 898 145 926.2 145.8C954.3 146.7 982.7 144.3 1010.8 143.7C1039 143 1067 144 1095 144.3C1123 144.7 1151 144.3 1179 140.8C1207 137.3 1235 130.7 1263 131.5C1291 132.3 1319 140.7 1347.2 145.3C1375.3 150 1403.7 151 1431.8 151.7C1460 152.3 1488 152.7 1516 155.2C1544 157.7 1572 162.3 1586 164.7L1600 167L1600 201L1586 201C1572 201 1544 201 1516 201C1488 201 1460 201 1431.8 201C1403.7 201 1375.3 201 1347.2 201C1319 201 1291 201 1263 201C1235 201 1207 201 1179 201C1151 201 1123 201 1095 201C1067 201 1039 201 1010.8 201C982.7 201 954.3 201 926.2 201C898 201 870 201 842 201C814 201 786 201 758 201C730 201 702 201 673.8 201C645.7 201 617.3 201 589.2 201C561 201 533 201 505 201C477 201 449 201 421 201C393 201 365 201 337 201C309 201 281 201 252.8 201C224.7 201 196.3 201 168.2 201C140 201 112 201 84 201C56 201 28 201 14 201L0 201Z" fill="#FF6F61" stroke-linecap="round" stroke-linejoin="miter"></path></svg>